# xmcd
#
# Track frame offsets: 
#        150
#        13545
#        30461
#        48921
#        63812
#        79624
#        91560
#        106572
#        123106
#
# Disc length: 1895 seconds
#
# Revision: 2
# Processed by: cddbd v1.5.2PL0 Copyright (c) Steve Scherf et al.
# Submitted via: ExactAudioCopy v0.95b1
#
DISCID=4f076509
DTITLE=Anne Adams - Sa oled mu järv
DYEAR=2007
DGENRE=Pop
TTITLE0=Sa oled mu järv
TTITLE1=Mind luba loota
TTITLE2=Koduvein
TTITLE3=Belmondo
TTITLE4=Mulle kuulud sa
TTITLE5=Vist meeldin sul
TTITLE6=Tõuse üles
TTITLE7=Maailm naerab
TTITLE8=Suvi on lõppenud
EXTD=
EXTT0=
EXTT1=
EXTT2=
EXTT3=
EXTT4=
EXTT5=
EXTT6=
EXTT7=
EXTT8=
PLAYORDER=
